<svg width="58" height="58" viewBox="0 0 58 58" fill="none" xmlns="http://www.w3.org/2000/svg">
<path d="M24.07 6.25832C23.333 6.92796 22.5176 7.71453 21.5857 8.63408C20.9957 9.09732 20.2682 9.35873 19.5117 9.37328L16.3896 9.43332L17.2992 8.52369C22.815 3.0079 25.5729 0.25 29 0.25C32.4271 0.25 35.185 3.00789 40.7008 8.52368L41.6087 9.43166L38.5937 9.37486C37.7437 9.35885 36.9292 9.03109 36.3051 8.45388L34.4972 6.78198C34.3255 6.6212 34.1581 6.46631 33.9946 6.31712L33.897 6.22687L33.8953 6.22687C33.2778 5.667 32.7153 5.18958 32.1851 4.78508C30.6538 3.6167 29.7624 3.35263 29 3.35263C28.2376 3.35263 27.3462 3.6167 25.8149 4.78508C25.2783 5.19451 24.7085 5.67864 24.0821 6.24737L24.0814 6.24737L24.07 6.25832Z" fill="black"/>
<path d="M51.6826 24.0051C51.5337 23.8419 51.3791 23.6748 51.2187 23.5035L49.5459 21.6946C48.9691 21.0709 48.6413 20.2571 48.6249 19.4077L48.5667 16.3896L49.4763 17.2992C54.9921 22.815 57.75 25.5729 57.75 29C57.75 32.4271 54.9921 35.185 49.4763 40.7008L48.5667 41.6104L48.6249 38.5923C48.6413 37.7429 48.9691 36.9291 49.5459 36.3054L51.2185 34.4968C51.379 34.3253 51.5337 34.1581 51.6827 33.9948L51.7731 33.897V33.8953C52.333 33.2778 52.8104 32.7153 53.2149 32.1851C54.3833 30.6538 54.6474 29.7624 54.6474 29C54.6474 28.2376 54.3833 27.3462 53.2149 25.8149C52.8104 25.2847 52.333 24.7222 51.7731 24.1047V24.103L51.6826 24.0051Z" fill="black"/>
<path d="M33.9601 51.7143C34.1446 51.5464 34.334 51.3711 34.5289 51.1883L36.3054 49.5457C36.9294 48.9687 37.7435 48.6411 38.5932 48.6249L41.6096 48.5675L40.7008 49.4763C35.185 54.9921 32.4271 57.75 29 57.75C25.5729 57.75 22.815 54.9921 17.2992 49.4763L16.3896 48.5667L19.4141 48.6248C20.2599 48.641 21.0705 48.9659 21.6934 49.5383L22.9131 50.6592C24.0267 51.726 24.9626 52.5647 25.8149 53.2149C27.3462 54.3833 28.2376 54.6474 29 54.6474C29.7624 54.6474 30.6538 54.3833 32.1851 53.2149C32.7217 52.8055 33.2915 52.3214 33.9179 51.7526H33.9187L33.9601 51.7143Z" fill="black"/>
<path d="M6.26202 33.9341C6.44675 34.1373 6.64036 34.3465 6.8432 34.5625L8.4547 36.3051C9.03166 36.929 9.35938 37.7431 9.37562 38.5927L9.43332 41.6104L8.52369 40.7008C3.0079 35.185 0.25 32.4271 0.25 29C0.25 25.5729 3.00789 22.815 8.52368 17.2992L9.43249 16.3904L9.37539 19.4067C9.3593 20.2567 9.03143 21.0711 8.45413 21.6952L6.79271 23.4913C6.62762 23.6675 6.46871 23.8392 6.3158 24.0069L6.22687 24.103L6.22687 24.1047C5.66699 24.7222 5.18958 25.2847 4.78508 25.8149C3.6167 27.3462 3.35263 28.2376 3.35263 29C3.35263 29.7624 3.6167 30.6538 4.78508 32.1851C5.1946 32.7219 5.67887 33.2918 6.24777 33.9184L6.24777 33.9187L6.26202 33.9341Z" fill="black"/>
<path d="M6.24777 24.0804L8.45413 21.6952C8.96576 21.1421 9.28147 20.4395 9.35788 19.6951C9.36697 18.4688 9.38705 17.3991 9.43129 16.4536L9.43374 16.3242L9.43774 16.3202C9.47846 15.5034 9.53816 14.7805 9.62565 14.1297C9.88231 12.2207 10.3259 11.4037 10.865 10.8646C11.4041 10.3255 12.2211 9.88195 14.1301 9.62529C14.7929 9.53618 15.5306 9.4759 16.3661 9.43513L16.3675 9.43374L16.4131 9.43287C17.3923 9.38614 18.5054 9.36574 19.7886 9.35686C20.5626 9.2798 21.2914 8.94412 21.8545 8.39979L24.0813 6.24742H22.7951C14.9946 6.24742 11.0944 6.24742 8.67108 8.67072C6.24777 11.094 6.24777 14.9943 6.24777 22.7948V24.0804Z" fill="black"/>
<path d="M6.24777 33.9187V35.2053C6.24777 43.0058 6.24777 46.9061 8.67108 49.3294C11.0944 51.7527 14.9946 51.7527 22.7951 51.7527H35.2057C43.0062 51.7527 46.9064 51.7527 49.3297 49.3294C51.753 46.9061 51.753 43.0058 51.753 35.2053V33.9187L49.5459 36.3054C49.0356 36.8571 48.7203 37.5577 48.643 38.3C48.6337 39.5529 48.613 40.6424 48.5668 41.603L48.5663 41.6325L48.5654 41.6334C48.5246 42.4693 48.4643 43.2073 48.3752 43.8704C48.1185 45.7794 47.6749 46.5964 47.1358 47.1355C46.5967 47.6746 45.7797 48.1181 43.8707 48.3748C43.2197 48.4623 42.4965 48.522 41.6793 48.5628L41.6758 48.5663L41.5626 48.5684C40.6127 48.6132 39.5373 48.6334 38.3032 48.6426C37.5597 48.7193 36.858 49.0347 36.3054 49.5457L33.9187 51.7526L24.103 51.7526L21.6934 49.5383C21.1424 49.032 20.4445 48.7193 19.7052 48.6426C18.4558 48.6334 17.3688 48.6129 16.4101 48.5671L16.3675 48.5663L16.3662 48.565C15.5307 48.5242 14.7929 48.4639 14.1301 48.3748C12.2211 48.1181 11.4041 47.6746 10.865 47.1355C10.3259 46.5964 9.88231 45.7794 9.62565 43.8704C9.53653 43.2075 9.47625 42.4698 9.43548 41.6342L9.43374 41.6325L9.43265 41.5753C9.38742 40.6221 9.36703 39.5422 9.35786 38.3022C9.281 37.559 8.96554 36.8575 8.4547 36.3051L6.24777 33.9187Z" fill="black"/>
<path d="M48.643 19.7C48.7203 20.4423 49.0356 21.1428 49.5459 21.6946L51.753 24.0813V22.7948C51.753 14.9943 51.753 11.094 49.3297 8.67072C46.9064 6.24742 43.0062 6.24742 35.2057 6.24742H33.9192L36.3051 8.45388C36.8586 8.96577 37.5618 9.28147 38.3067 9.35754C39.5257 9.36658 40.5898 9.38648 41.531 9.4302L41.7192 9.43374L41.725 9.43963C42.5235 9.4803 43.2319 9.5394 43.8707 9.62529C45.7797 9.88195 46.5967 10.3255 47.1358 10.8646C47.6749 11.4037 48.1185 12.2207 48.3752 14.1297C48.4643 14.7928 48.5246 15.5307 48.5654 16.3666L48.5663 16.3675L48.5668 16.3971C48.613 17.3577 48.6337 18.4471 48.643 19.7Z" fill="black"/>
<path d="M26.6453 15.2538L24.5526 17.0299C24.1792 17.3469 23.7112 17.5312 23.2219 17.554L19.7195 17.7172L21.5458 15.8909C25.071 12.3656 26.8336 10.603 29.0239 10.603C31.2142 10.603 32.9768 12.3656 36.502 15.8909L38.3172 17.706L34.7657 17.5521C34.2678 17.5305 33.7917 17.3417 33.4143 17.0162L31.8345 15.6533C31.2799 15.1314 30.8096 14.7189 30.3805 14.3915C29.5014 13.7207 29.168 13.7055 29.0239 13.7055C28.8799 13.7055 28.5465 13.7207 27.6674 14.3915C27.6533 14.4022 27.6393 14.413 27.6252 14.4239L27.6232 14.4238L27.6024 14.4414C27.3079 14.6698 26.9934 14.9381 26.6453 15.2538Z" fill="black"/>
<path d="M43.4935 27.471C42.8957 26.7152 42.0376 25.8229 40.7954 24.5736C40.5923 24.2491 40.4753 23.8751 40.4596 23.4874L40.306 19.6948L42.1106 21.4994C45.6358 25.0247 47.3985 26.7873 47.3985 28.9776C47.3985 31.1678 45.6358 32.9304 42.1106 36.4557L40.2963 38.27L40.4711 34.6452C40.4954 34.1415 40.6908 33.6612 41.025 33.2835L42.352 31.784C42.7709 31.3388 43.1192 30.9479 43.4095 30.589L43.573 30.4043V30.3824C43.5854 30.3662 43.5978 30.3502 43.61 30.3341C44.2808 29.455 44.296 29.1216 44.296 28.9776C44.296 28.8335 44.2808 28.5001 43.61 27.621C43.5978 27.6049 43.5854 27.5889 43.573 27.5727V27.5545L43.4935 27.471Z" fill="black"/>
<path d="M14.4826 27.5691L16.902 24.9381C17.2447 24.5655 17.4494 24.0868 17.4821 23.5816L17.616 21.5163C17.6363 20.8624 17.6699 20.31 17.7254 19.8285L17.7349 19.682L17.7445 19.6725C17.7466 19.6559 17.7488 19.6394 17.751 19.6229C17.8983 18.527 18.1233 18.2805 18.2251 18.1786C18.327 18.0767 18.5736 17.8518 19.6695 17.7044C20.0213 17.6571 20.4118 17.6233 20.8544 17.5991L23.8259 17.3059C24.3027 17.2589 24.7513 17.0586 25.1046 16.7352L27.6159 14.4361H25.0583C20.0729 14.4361 17.5802 14.4361 16.0314 15.9848C14.712 17.3043 14.5166 19.3088 14.4877 22.9561C14.4826 23.59 14.4826 24.2735 14.4826 25.0117L14.4826 27.5627V27.5691Z" fill="black"/>
<path d="M14.4826 30.386V30.3952L14.4826 32.9434C14.4826 33.6816 14.4826 34.3651 14.4877 34.999C14.5166 38.6463 14.7119 40.6509 16.0314 41.9703C17.3509 43.2898 19.3554 43.4851 23.0028 43.5141C23.6366 43.5191 24.3201 43.5191 25.0583 43.5191H27.6059H30.4384H32.99C33.728 43.5191 34.4114 43.5191 35.0451 43.5141C38.6927 43.4852 40.6974 43.2898 42.0169 41.9703C43.5657 40.4216 43.5657 37.9289 43.5657 32.9434V30.3783L40.9873 33.1741C40.7295 33.4537 40.5498 33.7928 40.462 34.1575C40.457 35.9697 40.4324 37.2297 40.3142 38.1998L40.313 38.2515L40.3071 38.2574C40.3039 38.2825 40.3006 38.3075 40.2973 38.3322C40.15 39.4282 39.925 39.6747 39.8231 39.7766C39.7213 39.8784 39.4747 40.1034 38.3788 40.2507C38.3541 40.2541 38.3291 40.2573 38.304 40.2605L38.2979 40.2666L38.2111 40.2719C37.6594 40.3374 37.0141 40.3733 36.2282 40.3929L34.4602 40.5008C33.9569 40.5316 33.4791 40.7331 33.1058 41.072L30.4107 43.5191H27.5938L24.8997 41.0003C24.5451 40.6688 24.0925 40.4638 23.612 40.4147C23.4039 40.4139 23.2033 40.4127 23.0098 40.4112C21.5576 40.3995 20.5048 40.363 19.6695 40.2507C18.5736 40.1034 18.327 39.8784 18.2251 39.7766C18.1233 39.6747 17.8983 39.4282 17.751 38.3322C17.7488 38.3158 17.7466 38.2993 17.7445 38.2828L17.7349 38.2732L17.734 38.2524L17.7304 38.1697C17.6321 37.3441 17.6002 36.3092 17.5899 34.9063L17.5744 34.5469C17.5703 34.4505 17.5598 34.355 17.5434 34.2608C17.4714 33.8486 17.2836 33.463 16.9993 33.1507L14.4826 30.386Z" fill="black"/>
<path d="M40.4361 21.6459L40.5814 23.6165C40.6181 24.1136 40.8212 24.5837 41.158 24.9511L43.5657 27.5768V25.0117C43.5657 20.0263 43.5657 17.5336 42.0169 15.9848C40.4681 14.4361 37.9754 14.4361 32.99 14.4361H30.4104L32.9941 16.7897C33.3562 17.1196 33.8173 17.3201 34.3055 17.3601L37.3018 17.6052C37.5881 17.6223 37.8522 17.6436 38.098 17.6704L38.3195 17.6885L38.3288 17.6978C38.3455 17.7 38.3622 17.7022 38.3788 17.7044C39.4747 17.8518 39.7213 18.0767 39.8231 18.1786C39.925 18.2805 40.15 18.527 40.2973 19.6229C40.3724 20.1817 40.4136 20.8379 40.4361 21.6459Z" fill="black"/>
<path d="M17.7437 38.2621L17.734 38.2524L17.7349 38.2732L17.7445 38.2828L17.7437 38.2621Z" fill="black"/>
<path d="M19.7418 40.2602L23.0098 40.4112C21.5992 40.3998 20.5654 40.3651 19.7418 40.2602Z" fill="black"/>
<path d="M17.6049 34.6945C17.5987 34.5474 17.578 34.4022 17.5434 34.2608C17.5598 34.355 17.5703 34.4505 17.5744 34.5469L17.5899 34.9063C17.6002 36.3092 17.6321 37.3441 17.7304 38.1697L17.734 38.2524L17.7437 38.2621L17.6049 34.6945Z" fill="black"/>
<path d="M10.6494 28.9776C10.6494 30.8436 11.9288 32.3993 14.4877 34.999C14.4826 34.3651 14.4826 33.6816 14.4826 32.9434L14.4826 30.3952L14.4772 30.389L14.4772 30.3854C14.464 30.3682 14.4508 30.3511 14.4379 30.3341C13.7671 29.455 13.7518 29.1216 13.7518 28.9776C13.7518 28.8335 13.7671 28.5001 14.4379 27.621C14.4526 27.6016 14.4675 27.5822 14.4826 27.5627L14.4826 25.0117C14.4826 24.2735 14.4826 23.59 14.4877 22.9561C11.9288 25.5558 10.6494 27.1115 10.6494 28.9776Z" fill="black"/>
<path d="M27.6674 43.5636C27.6549 43.5541 27.6425 43.5446 27.63 43.5349H27.6232L27.6059 43.5191H25.0583C24.3201 43.5191 23.6366 43.5191 23.0028 43.5141C25.6023 46.0727 27.1579 47.3521 29.0239 47.3521C30.8899 47.3521 32.4455 46.0727 35.0451 43.5141C34.4114 43.5191 33.728 43.5191 32.99 43.5191H30.4384C30.419 43.5341 30.3997 43.5489 30.3805 43.5636C29.5014 44.2344 29.168 44.2496 29.0239 44.2496C28.8799 44.2496 28.5465 44.2344 27.6674 43.5636Z" fill="black"/>
</svg>
