<svg width="21" height="21" viewBox="0 0 21 21" fill="none" xmlns="http://www.w3.org/2000/svg">
<path fill-rule="evenodd" clip-rule="evenodd" d="M8.54572 1.10579C9.57786 -0.0821356 11.4223 -0.0821393 12.4545 1.10579L13.2585 2.03112C13.3917 2.18452 13.5947 2.25838 13.7954 2.22654L15.0061 2.03449C16.5603 1.78794 17.9732 2.97353 18.0003 4.54698L18.0214 5.77262C18.0249 5.97581 18.1329 6.16284 18.3071 6.26746L19.358 6.89855C20.7071 7.70873 21.0274 9.52517 20.0368 10.7479L19.2651 11.7004C19.1372 11.8583 19.0997 12.0709 19.1659 12.2631L19.5652 13.422C20.0779 14.9098 19.1557 16.5072 17.6109 16.8071L16.4075 17.0407C16.208 17.0794 16.0426 17.2182 15.9698 17.408L15.5308 18.5525C14.9672 20.0218 13.234 20.6526 11.8578 19.8893L10.7858 19.2948C10.6081 19.1962 10.3921 19.1962 10.2144 19.2948L9.14242 19.8893C7.76623 20.6526 6.033 20.0218 5.4694 18.5525L5.03038 17.408C4.9576 17.2182 4.79216 17.0794 4.59268 17.0407L3.38932 16.8071C1.84448 16.5072 0.922245 14.9098 1.43495 13.422L1.83431 12.2631C1.90052 12.0709 1.86302 11.8583 1.7351 11.7004L0.963432 10.7479C-0.0272148 9.52517 0.293068 7.70873 1.64218 6.89855L2.69306 6.26746C2.86728 6.16284 2.97526 5.97581 2.97875 5.77263L2.99985 4.54699C3.02694 2.97354 4.43987 1.78794 5.99413 2.03449L7.20481 2.22654C7.40551 2.25838 7.60845 2.18452 7.74173 2.03112L8.54572 1.10579ZM13.7072 9.42195C14.0977 9.03143 14.0977 8.39826 13.7072 8.00774C13.3167 7.61721 12.6835 7.61721 12.293 8.00774L9.5001 10.8006L8.7072 10.0077C8.31667 9.61721 7.68351 9.61721 7.29298 10.0077C6.90246 10.3983 6.90246 11.0314 7.29298 11.422L8.43944 12.5684C9.02522 13.1542 9.97497 13.1542 10.5608 12.5684L13.7072 9.42195Z" fill="#7AC455"/>
</svg>
