<?xml version="1.0" encoding="UTF-8" standalone="no"?>
<!DOCTYPE svg PUBLIC "-//W3C//DTD SVG 1.1//EN" "http://www.w3.org/Graphics/SVG/1.1/DTD/svg11.dtd">
<svg width="100%" height="100%" viewBox="0 0 79 108" version="1.1" xmlns="http://www.w3.org/2000/svg" xmlns:xlink="http://www.w3.org/1999/xlink" xml:space="preserve" xmlns:serif="http://www.serif.com/" style="fill-rule:evenodd;clip-rule:evenodd;stroke-linejoin:round;stroke-miterlimit:2;">
    <g transform="matrix(1,0,0,1,-5006.758803,-1902.365763)">
        <g transform="matrix(1,0,0,1,3018.563038,0)">
            <g transform="matrix(-0.195024,-0.378544,-0.378544,0.195024,2744.572343,2350.110613)">
                <path d="M1527.531,1205.49C1525.636,1208.311 1522.794,1213.585 1522.794,1213.585C1538.769,1204.643 1671.181,1124.666 1664,934L1616,971C1616,971 1626.117,994.032 1619,1020C1619,1020 1612.022,973.026 1607,982C1607,982 1580.661,1014.807 1570,1077C1570,1077 1582.109,1086.941 1574,1117C1574,1117 1578.822,1086.314 1564,1084C1564,1084 1570.982,1140.813 1527.531,1205.49Z" style="fill:rgb(49,110,162);"/>
            </g>
        </g>
    </g>
</svg>
