<svg xmlns="http://www.w3.org/2000/svg" xmlns:xlink="http://www.w3.org/1999/xlink" width="500" zoomAndPan="magnify" viewBox="0 0 375 374.999991" height="500" preserveAspectRatio="xMidYMid meet" version="1.0"><defs><g/><clipPath id="7c9b51784a"><path d="M 66 196 L 84 196 L 84 230.398438 L 66 230.398438 Z M 66 196 " clip-rule="nonzero"/></clipPath><clipPath id="020212684d"><path d="M 29.328125 163 L 41 163 L 41 194 L 29.328125 194 Z M 29.328125 163 " clip-rule="nonzero"/></clipPath><clipPath id="a5411c9bcf"><path d="M 42 144.898438 L 105 144.898438 L 105 164 L 42 164 Z M 42 144.898438 " clip-rule="nonzero"/></clipPath><clipPath id="21f3a80482"><path d="M 105 167 L 114.828125 167 L 114.828125 203 L 105 203 Z M 105 167 " clip-rule="nonzero"/></clipPath></defs><g fill="#000000" fill-opacity="1"><g transform="translate(130.496772, 201.749987)"><g><path d="M 4.78125 -29.40625 L 7.890625 -29.40625 L 7.890625 0 L 4.78125 0 Z M 4.78125 -29.40625 "/></g></g></g><g fill="#000000" fill-opacity="1"><g transform="translate(145.277169, 201.749987)"><g><path d="M 15.796875 -29.40625 C 19.546875 -29.40625 22.484375 -28.507812 24.609375 -26.71875 C 26.734375 -24.925781 27.796875 -22.457031 27.796875 -19.3125 C 27.796875 -16.175781 26.734375 -13.71875 24.609375 -11.9375 C 22.484375 -10.164062 19.546875 -9.28125 15.796875 -9.28125 L 7.890625 -9.28125 L 7.890625 0 L 4.78125 0 L 4.78125 -29.40625 Z M 15.703125 -12.015625 C 18.617188 -12.015625 20.847656 -12.648438 22.390625 -13.921875 C 23.929688 -15.191406 24.703125 -16.988281 24.703125 -19.3125 C 24.703125 -21.695312 23.929688 -23.523438 22.390625 -24.796875 C 20.847656 -26.078125 18.617188 -26.71875 15.703125 -26.71875 L 7.890625 -26.71875 L 7.890625 -12.015625 Z M 15.703125 -12.015625 "/></g></g></g><g fill="#000000" fill-opacity="1"><g transform="translate(177.524655, 201.749987)"><g><path d="M 17.640625 0.25 C 14.722656 0.25 12.082031 -0.398438 9.71875 -1.703125 C 7.351562 -3.003906 5.503906 -4.785156 4.171875 -7.046875 C 2.847656 -9.316406 2.1875 -11.867188 2.1875 -14.703125 C 2.1875 -17.523438 2.847656 -20.070312 4.171875 -22.34375 C 5.503906 -24.613281 7.351562 -26.398438 9.71875 -27.703125 C 12.082031 -29.003906 14.722656 -29.65625 17.640625 -29.65625 C 20.554688 -29.65625 23.179688 -29.007812 25.515625 -27.71875 C 27.847656 -26.425781 29.6875 -24.640625 31.03125 -22.359375 C 32.375 -20.078125 33.046875 -17.523438 33.046875 -14.703125 C 33.046875 -11.867188 32.375 -9.3125 31.03125 -7.03125 C 29.6875 -4.75 27.847656 -2.960938 25.515625 -1.671875 C 23.179688 -0.390625 20.554688 0.25 17.640625 0.25 Z M 17.640625 -2.515625 C 19.960938 -2.515625 22.0625 -3.039062 23.9375 -4.09375 C 25.8125 -5.144531 27.28125 -6.597656 28.34375 -8.453125 C 29.414062 -10.316406 29.953125 -12.398438 29.953125 -14.703125 C 29.953125 -16.992188 29.414062 -19.070312 28.34375 -20.9375 C 27.28125 -22.800781 25.8125 -24.253906 23.9375 -25.296875 C 22.0625 -26.347656 19.960938 -26.875 17.640625 -26.875 C 15.316406 -26.875 13.207031 -26.347656 11.3125 -25.296875 C 9.425781 -24.253906 7.941406 -22.800781 6.859375 -20.9375 C 5.785156 -19.070312 5.25 -16.992188 5.25 -14.703125 C 5.25 -12.398438 5.785156 -10.316406 6.859375 -8.453125 C 7.941406 -6.597656 9.425781 -5.144531 11.3125 -4.09375 C 13.207031 -3.039062 15.316406 -2.515625 17.640625 -2.515625 Z M 17.640625 -2.515625 "/></g></g></g><g fill="#000000" fill-opacity="1"><g transform="translate(214.852711, 201.749987)"><g><path d="M 25.5 -14.703125 L 28.46875 -14.703125 L 28.46875 -3.484375 C 27.101562 -2.285156 25.484375 -1.363281 23.609375 -0.71875 C 21.734375 -0.0703125 19.757812 0.25 17.6875 0.25 C 14.738281 0.25 12.085938 -0.390625 9.734375 -1.671875 C 7.390625 -2.960938 5.546875 -4.75 4.203125 -7.03125 C 2.859375 -9.3125 2.1875 -11.867188 2.1875 -14.703125 C 2.1875 -17.523438 2.859375 -20.078125 4.203125 -22.359375 C 5.546875 -24.640625 7.390625 -26.425781 9.734375 -27.71875 C 12.085938 -29.007812 14.75 -29.65625 17.71875 -29.65625 C 19.957031 -29.65625 22.015625 -29.296875 23.890625 -28.578125 C 25.773438 -27.867188 27.359375 -26.8125 28.640625 -25.40625 L 26.71875 -23.4375 C 24.382812 -25.726562 21.425781 -26.875 17.84375 -26.875 C 15.46875 -26.875 13.320312 -26.347656 11.40625 -25.296875 C 9.488281 -24.253906 7.984375 -22.800781 6.890625 -20.9375 C 5.796875 -19.070312 5.25 -16.992188 5.25 -14.703125 C 5.25 -12.398438 5.796875 -10.328125 6.890625 -8.484375 C 7.984375 -6.640625 9.476562 -5.179688 11.375 -4.109375 C 13.28125 -3.046875 15.425781 -2.515625 17.8125 -2.515625 C 20.832031 -2.515625 23.394531 -3.269531 25.5 -4.78125 Z M 25.5 -14.703125 "/></g></g></g><g fill="#000000" fill-opacity="1"><g transform="translate(249.409551, 201.749987)"><g><path d="M 24.859375 0 L 18.140625 -9.453125 C 17.390625 -9.367188 16.609375 -9.328125 15.796875 -9.328125 L 7.890625 -9.328125 L 7.890625 0 L 4.78125 0 L 4.78125 -29.40625 L 15.796875 -29.40625 C 19.546875 -29.40625 22.484375 -28.507812 24.609375 -26.71875 C 26.734375 -24.925781 27.796875 -22.457031 27.796875 -19.3125 C 27.796875 -17.019531 27.210938 -15.082031 26.046875 -13.5 C 24.890625 -11.914062 23.234375 -10.773438 21.078125 -10.078125 L 28.265625 0 Z M 15.703125 -11.96875 C 18.617188 -11.96875 20.847656 -12.609375 22.390625 -13.890625 C 23.929688 -15.179688 24.703125 -16.988281 24.703125 -19.3125 C 24.703125 -21.695312 23.929688 -23.523438 22.390625 -24.796875 C 20.847656 -26.078125 18.617188 -26.71875 15.703125 -26.71875 L 7.890625 -26.71875 L 7.890625 -11.96875 Z M 15.703125 -11.96875 "/></g></g></g><g fill="#000000" fill-opacity="1"><g transform="translate(281.866985, 201.749987)"><g><path d="M 23.21875 -7.859375 L 6.84375 -7.859375 L 3.3125 0 L 0.078125 0 L 13.53125 -29.40625 L 16.59375 -29.40625 L 30.03125 0 L 26.75 0 Z M 22.09375 -10.375 L 15.03125 -26.171875 L 7.984375 -10.375 Z M 22.09375 -10.375 "/></g></g></g><g fill="#000000" fill-opacity="1"><g transform="translate(314.072488, 201.749987)"><g><path d="M 7.890625 -26.71875 L 7.890625 -15.15625 L 23.09375 -15.15625 L 23.09375 -12.46875 L 7.890625 -12.46875 L 7.890625 0 L 4.78125 0 L 4.78125 -29.40625 L 24.953125 -29.40625 L 24.953125 -26.71875 Z M 7.890625 -26.71875 "/></g></g></g><g fill="#000000" fill-opacity="1"><g transform="translate(342.750968, 201.749987)"><g><path d="M 4.78125 -29.40625 L 7.890625 -29.40625 L 7.890625 0 L 4.78125 0 Z M 4.78125 -29.40625 "/></g></g></g><g clip-path="url(#7c9b51784a)"><path fill="#1a1a1a" d="M 68.757812 230.398438 C 68.296875 230.398438 67.835938 230.257812 67.445312 229.96875 C 66.457031 229.230469 66.25 227.839844 66.96875 226.84375 L 68.347656 224.9375 C 74.015625 217.191406 77.734375 208.054688 79.101562 198.523438 C 79.269531 197.304688 80.398438 196.449219 81.625 196.636719 C 82.835938 196.808594 83.691406 197.941406 83.503906 199.179688 C 82.035156 209.429688 78.023438 219.253906 71.933594 227.597656 L 70.550781 229.503906 C 70.105469 230.085938 69.441406 230.398438 68.757812 230.398438 Z M 68.757812 230.398438 " fill-opacity="1" fill-rule="nonzero"/></g><path fill="#1a1a1a" d="M 48.589844 222.996094 C 48.027344 222.996094 47.480469 222.789062 47.035156 222.359375 C 46.148438 221.5 46.132812 220.078125 46.984375 219.199219 L 47.957031 218.1875 C 55.671875 210.167969 59.917969 199.605469 59.917969 188.460938 L 59.917969 188.152344 C 59.917969 181.371094 65.261719 175.753906 71.8125 175.636719 C 75.105469 175.601562 78.195312 176.820312 80.535156 179.121094 C 82.871094 181.4375 84.167969 184.53125 84.167969 187.828125 L 84.167969 190.109375 C 84.167969 191.347656 83.179688 192.34375 81.949219 192.34375 C 80.722656 192.34375 79.730469 191.347656 79.730469 190.109375 L 79.730469 187.828125 C 79.730469 185.730469 78.914062 183.773438 77.425781 182.316406 C 75.941406 180.855469 73.980469 180.046875 71.914062 180.097656 C 67.769531 180.167969 64.390625 183.792969 64.390625 188.152344 L 64.390625 188.460938 C 64.390625 200.792969 59.699219 212.453125 51.183594 221.3125 L 50.210938 222.324219 C 49.75 222.773438 49.167969 222.996094 48.589844 222.996094 Z M 48.589844 222.996094 " fill-opacity="1" fill-rule="nonzero"/><path fill="#1a1a1a" d="M 81.933594 228.972656 C 81.558594 228.972656 81.183594 228.886719 80.839844 228.679688 C 79.765625 228.078125 79.390625 226.703125 80.003906 225.621094 L 81.863281 222.308594 C 87.121094 212.933594 89.902344 202.285156 89.902344 191.519531 L 89.902344 187.828125 C 89.902344 184.050781 88.742188 180.425781 86.558594 177.371094 C 85.839844 176.375 86.0625 174.964844 87.070312 174.242188 C 88.058594 173.523438 89.457031 173.746094 90.175781 174.757812 C 92.90625 178.589844 94.355469 183.105469 94.355469 187.84375 L 94.355469 191.554688 C 94.355469 203.09375 91.386719 214.496094 85.738281 224.542969 L 83.878906 227.855469 C 83.453125 228.558594 82.699219 228.972656 81.933594 228.972656 Z M 81.933594 228.972656 " fill-opacity="1" fill-rule="nonzero"/><path fill="#1a1a1a" d="M 51.386719 197.71875 C 51.25 197.71875 51.097656 197.699219 50.960938 197.683594 C 49.75 197.445312 48.964844 196.277344 49.203125 195.054688 C 49.5625 193.234375 49.734375 191.363281 49.734375 189.511719 L 49.734375 188.308594 C 49.734375 176.097656 59.375 165.828125 71.214844 165.398438 C 74.304688 165.28125 77.324219 165.8125 80.175781 166.929688 C 81.316406 167.375 81.882812 168.679688 81.4375 169.832031 C 80.992188 170.980469 79.695312 171.546875 78.554688 171.101562 C 76.265625 170.191406 73.859375 169.796875 71.371094 169.882812 C 61.882812 170.226562 54.167969 178.484375 54.167969 188.324219 L 54.167969 189.527344 C 54.167969 191.671875 53.964844 193.820312 53.554688 195.914062 C 53.367188 196.980469 52.429688 197.71875 51.386719 197.71875 Z M 51.386719 197.71875 " fill-opacity="1" fill-rule="nonzero"/><path fill="#1a1a1a" d="M 41.234375 215.835938 C 40.722656 215.835938 40.195312 215.644531 39.785156 215.285156 C 38.863281 214.476562 38.761719 213.054688 39.5625 212.125 L 42.683594 208.503906 C 44.222656 206.714844 45.535156 204.757812 46.609375 202.648438 C 47.171875 201.546875 48.503906 201.101562 49.597656 201.667969 C 50.6875 202.234375 51.132812 203.574219 50.570312 204.671875 C 49.339844 207.09375 47.820312 209.378906 46.046875 211.421875 L 42.90625 215.042969 C 42.464844 215.558594 41.847656 215.835938 41.234375 215.835938 Z M 41.234375 215.835938 " fill-opacity="1" fill-rule="nonzero"/><path fill="#1a1a1a" d="M 96.285156 222.515625 C 95.976562 222.515625 95.667969 222.445312 95.363281 222.308594 C 94.234375 221.792969 93.742188 220.472656 94.253906 219.335938 C 98.109375 210.75 100.054688 201.632812 100.054688 192.207031 C 100.054688 190.96875 101.042969 189.972656 102.273438 189.972656 C 103.5 189.972656 104.492188 190.96875 104.492188 192.207031 C 104.492188 202.269531 102.410156 212.003906 98.296875 221.175781 C 97.9375 222.035156 97.136719 222.515625 96.285156 222.515625 Z M 96.285156 222.515625 " fill-opacity="1" fill-rule="nonzero"/><path fill="#1a1a1a" d="M 101.691406 184.03125 C 100.652344 184.03125 99.730469 183.292969 99.507812 182.230469 C 96.949219 169.382812 85.617188 159.871094 72.582031 159.628906 C 71.351562 159.613281 70.378906 158.582031 70.398438 157.347656 C 70.414062 156.109375 71.4375 155.148438 72.667969 155.148438 C 87.769531 155.441406 100.890625 166.464844 103.878906 181.351562 C 104.117188 182.574219 103.332031 183.738281 102.136719 183.996094 C 101.984375 184.015625 101.828125 184.03125 101.691406 184.03125 Z M 101.691406 184.03125 " fill-opacity="1" fill-rule="nonzero"/><path fill="#1a1a1a" d="M 36.011719 206.992188 C 35.570312 206.992188 35.109375 206.855469 34.714844 206.578125 C 33.710938 205.859375 33.488281 204.46875 34.203125 203.453125 L 37.191406 199.265625 C 38.742188 197.082031 39.5625 194.507812 39.5625 191.8125 L 39.5625 188.429688 C 39.5625 174.125 48.914062 161.074219 62.292969 156.695312 C 63.453125 156.316406 64.714844 156.953125 65.089844 158.136719 C 65.464844 159.304688 64.835938 160.574219 63.65625 160.953125 C 52.085938 164.730469 44 176.03125 44 188.429688 L 44 191.8125 C 44 195.433594 42.890625 198.921875 40.789062 201.875 L 37.804688 206.0625 C 37.378906 206.664062 36.695312 206.992188 36.011719 206.992188 Z M 36.011719 206.992188 " fill-opacity="1" fill-rule="nonzero"/><g clip-path="url(#020212684d)"><path fill="#1a1a1a" d="M 31.59375 193.355469 C 30.363281 193.355469 29.375 192.359375 29.375 191.125 L 29.375 187.828125 C 29.375 179.445312 31.78125 171.324219 36.320312 164.351562 C 36.984375 163.324219 38.367188 163.03125 39.390625 163.699219 C 40.414062 164.371094 40.707031 165.761719 40.039062 166.808594 C 35.980469 173.058594 33.828125 180.324219 33.828125 187.828125 L 33.828125 191.105469 C 33.828125 192.34375 32.820312 193.355469 31.59375 193.355469 Z M 31.59375 193.355469 " fill-opacity="1" fill-rule="nonzero"/></g><g clip-path="url(#a5411c9bcf)"><path fill="#1a1a1a" d="M 102.289062 163.082031 C 101.675781 163.082031 101.0625 162.824219 100.617188 162.328125 C 93.382812 154.101562 82.957031 149.378906 72.035156 149.378906 C 62.582031 149.378906 53.503906 152.882812 46.492188 159.234375 C 45.570312 160.058594 44.167969 159.992188 43.351562 159.0625 C 42.53125 158.136719 42.601562 156.726562 43.519531 155.902344 C 51.335938 148.8125 61.472656 144.898438 72.035156 144.898438 C 84.21875 144.898438 95.855469 150.167969 103.960938 159.355469 C 104.78125 160.28125 104.695312 161.691406 103.773438 162.515625 C 103.347656 162.894531 102.820312 163.082031 102.289062 163.082031 Z M 102.289062 163.082031 " fill-opacity="1" fill-rule="nonzero"/></g><g clip-path="url(#21f3a80482)"><path fill="#1a1a1a" d="M 111.402344 202.21875 C 111.28125 202.21875 111.144531 202.199219 111.027344 202.183594 C 109.816406 201.976562 108.996094 200.808594 109.199219 199.605469 C 110.328125 192.996094 110.242188 187.929688 110.242188 187.878906 C 110.242188 181.664062 108.84375 175.773438 106.0625 170.328125 C 105.5 169.230469 105.925781 167.871094 107.035156 167.304688 C 108.125 166.738281 109.472656 167.167969 110.019531 168.285156 C 113.125 174.363281 114.695312 180.941406 114.695312 187.828125 C 114.695312 188 114.78125 193.289062 113.585938 200.34375 C 113.398438 201.445312 112.460938 202.21875 111.402344 202.21875 Z M 111.402344 202.21875 " fill-opacity="1" fill-rule="nonzero"/></g><path fill="#1a1a1a" d="M 57.242188 227.648438 C 56.625 227.648438 56.011719 227.390625 55.570312 226.894531 C 54.75 225.964844 54.835938 224.558594 55.757812 223.734375 C 55.945312 223.578125 69.800781 210.804688 69.800781 187.828125 C 69.800781 186.589844 70.789062 185.59375 72.019531 185.59375 C 73.246094 185.59375 74.238281 186.589844 74.238281 187.828125 C 74.238281 212.933594 59.339844 226.515625 58.707031 227.082031 C 58.296875 227.460938 57.769531 227.648438 57.242188 227.648438 Z M 57.242188 227.648438 " fill-opacity="1" fill-rule="nonzero"/></svg>