<svg fill="none" xmlns="http://www.w3.org/2000/svg" viewBox="0 0 81 81"><path d="M5.988 21.547h69v47.5a1.5 1.5 0 0 1-1.5 1.5h-66a1.5 1.5 0 0 1-1.5-1.5v-47.5Z" fill="#F7FAFC" stroke="#DAE3ED"/><path d="M74.487 21.547v47.5a1 1 0 0 1-1 1h-67l68-48.5Z" fill="#FFFFFD"/><path d="M5.988 12.047a1.5 1.5 0 0 1 1.5-1.5h66a1.5 1.5 0 0 1 1.5 1.5v9.5h-69v-9.5Z" fill="#CCD7E6" stroke="#CCD7E6"/><circle cx="40.487" cy="46.047" r="16.5" fill="#FFFFFD" stroke="#2A4365"/><path d="M50.849 46.047c0 4.614-1.196 8.767-3.103 11.752-1.91 2.99-4.488 4.748-7.258 4.748-2.77 0-5.348-1.758-7.259-4.748-1.907-2.985-3.102-7.139-3.102-11.752 0-4.614 1.195-8.767 3.102-11.752 1.91-2.99 4.489-4.748 7.259-4.748 2.77 0 5.348 1.758 7.258 4.748 1.907 2.985 3.103 7.138 3.103 11.752Z" fill="#FFFFFD" stroke="#2A4365"/><path d="M44.237 46.047c0 4.666-.473 8.873-1.23 11.9-.379 1.516-.822 2.709-1.296 3.51-.493.834-.923 1.09-1.224 1.09-.3 0-.73-.256-1.223-1.09-.474-.801-.917-1.994-1.297-3.51-.756-3.027-1.23-7.234-1.23-11.9s.474-8.873 1.23-11.9c.38-1.517.823-2.709 1.297-3.51.493-.834.923-1.09 1.223-1.09.301 0 .731.256 1.224 1.09.474.801.917 1.993 1.297 3.51.756 3.027 1.23 7.234 1.23 11.9Z" fill="#FFFFFD" stroke="#2A4365"/><path d="M23.488 46.519H57.25M25.14 38.964H55.6M25.848 54.075h29.278" stroke="#2A4365"/><circle cx="10.488" cy="16.047" r="2" fill="#F56565"/><circle cx="16.488" cy="16.047" r="2" fill="#FE5"/><circle cx="22.488" cy="16.047" r="2" fill="#48BB78"/><rect x="30.488" y="15.047" width="42" height="2" rx="1" fill="#ABB8CC"/></svg>