<svg fill="none" xmlns="http://www.w3.org/2000/svg" viewBox="0 0 81 81"><g filter="url(#a)"><path d="M73.5 65.23a5.42 5.42 0 0 1-5.431 5.43H12.931A5.42 5.42 0 0 1 7.5 65.23V16.17a5.433 5.433 0 0 1 5.431-5.43h55.138a5.433 5.433 0 0 1 5.431 5.43v49.06Z" fill="#304371"/><path d="M31.862 70.66V59.696c0-4.5 3.512-8.14 7.855-8.14h22.5c4.343 0 7.855 3.661 7.855 8.14V70.66" fill="#fff"/><path d="M36.813 42.239c.574-1.934 1.488-3.507 2.741-4.76 1.254-1.233 2.848-2.147 4.825-2.742 1.976-.596 4.314-.893 7.056-.893 2.295 0 4.292.276 6.014.829a11.968 11.968 0 0 1 4.505 2.614c1.51 1.403 2.53 3.039 3.06 4.888.532 1.849.808 4.187.808 6.95v17.129c0 1.466-.34 2.571-.999 3.294-.68.722-1.55 1.084-2.635 1.084-1.084 0-1.955-.362-2.593-1.084-.637-.723-.977-1.807-.977-3.294V48.636c0-3.04-.574-5.314-1.743-6.801-1.169-1.488-3.145-2.253-5.972-2.253-2.04 0-3.613.361-4.76 1.105-1.127.744-1.913 1.764-2.36 3.103-.446 1.339-.658 2.997-.658 4.973v17.49c0 1.446-.319 2.551-.978 3.274-.658.722-1.53 1.083-2.656 1.083-1.063 0-1.934-.36-2.572-1.083-.658-.723-.977-1.828-.977-3.273V49.167c0-2.7.297-4.994.871-6.928Z" fill="#fff"/><path d="m49.33 11.149 1.7 4.782 5.441-.022-4.42 2.954 1.7 4.761-4.42-2.954-4.379 2.954 1.68-4.76-4.4-2.955 5.44.022 1.658-4.782ZM66.268 14.273l1.68 4.782 5.44-.021-4.4 2.933 1.68 4.76-4.4-2.954-4.399 2.954 1.7-4.76-4.441-2.933 5.483.021 1.657-4.782ZM17.686 57.206l1.68 4.781 5.44-.02-4.42 2.932 1.7 4.76-4.4-2.954-4.4 2.954 1.701-4.76-4.42-2.933 5.44.021 1.68-4.781ZM21.66 27.258l1.679 4.782 5.44-.021-4.399 2.932 1.679 4.76-4.4-2.953-4.398 2.954 1.678-4.76-4.399-2.933 5.462.02 1.658-4.78ZM33.667 15.867l1.657 4.782 5.462-.021-4.42 2.932 1.7 4.76-4.4-2.953-4.398 2.954 1.678-4.76-4.42-2.933 5.462.02 1.679-4.781ZM16.091 42.287l1.68 4.781 5.46-.02-4.42 2.932 1.68 4.76-4.4-2.954-4.4 2.954 1.701-4.76-4.42-2.933 5.44.021 1.68-4.781Z" fill="#EDCC4D"/></g><defs><filter id="a" x="5.5" y="9.739" width="70" height="63.921" filterUnits="userSpaceOnUse" color-interpolation-filters="sRGB"><feFlood flood-opacity="0" result="BackgroundImageFix"/><feColorMatrix in="SourceAlpha" values="0 0 0 0 0 0 0 0 0 0 0 0 0 0 0 0 0 0 127 0" result="hardAlpha"/><feOffset dy="1"/><feGaussianBlur stdDeviation="1"/><feColorMatrix values="0 0 0 0 0 0 0 0 0 0 0 0 0 0 0 0 0 0 0.05 0"/><feBlend in2="BackgroundImageFix" result="effect1_dropShadow_995_16545"/><feBlend in="SourceGraphic" in2="effect1_dropShadow_995_16545" result="shape"/></filter></defs></svg>