<svg fill="none" xmlns="http://www.w3.org/2000/svg" viewBox="0 0 81 81"><g clip-path="url(#a)"><path fill="#FFFFFD" stroke="#EAEFF7" stroke-width="1.134" d="M10.246 57.528V16.662h62.866v40.866z"/><path d="M7.216 57.529a3.97 3.97 0 0 1-3.97-3.97V20.632a3.97 3.97 0 0 1 3.97-3.97h2.895v40.865H7.216Z" fill="#EDF2F7" stroke="#EAEFF7" stroke-width="1.134"/><path d="M73.25 57.51V16.681h.73a4.1 4.1 0 0 1 4.099 4.1v32.63a4.1 4.1 0 0 1-4.1 4.1h-.729Z" fill="#EDF2F7" stroke="#EAEFF7" stroke-width="1.171"/><circle cx="6.149" cy="36.394" r="1.701" transform="rotate(-90 6.149 36.394)" fill="#4A5568"/><rect x="74.775" y="41.096" width="9.075" height="1.134" rx=".567" transform="rotate(-90 74.775 41.096)" fill="#4A5568"/><path d="M10.678 17.096h62v40l-62-40Z" fill="#F7FAFC"/><g filter="url(#b)"><rect x="17.079" y="25.096" width="49.5" height="24" rx="3" fill="#FFFFFD"/><rect x="17.829" y="25.846" width="48" height="22.5" rx="2.25" stroke="#FE5" stroke-width="1.5"/></g><path fill-rule="evenodd" clip-rule="evenodd" d="M28.291 36.787a2.103 2.103 0 0 0-.075-.065l.09-.242c.078-.211.156-.422.228-.638.14-.415.28-.829.422-1.242.395-1.157.79-2.313 1.143-3.499.285-.954.463-2.08-.159-2.867-.607-.766-1.273-.231-1.864.253-2.486 2.04-4.618 4.783-6.689 7.633-.1.14-.152.356-.204.573a4.625 4.625 0 0 1-.076.289c.067.075.133.146.2.217l.311-.335c.19-.203.38-.406.566-.616.55-.62 1.097-1.242 1.645-1.864 1.503-1.705 3.005-3.41 4.522-5.085l.024-.026c.35-.386.81-.89 1.26-.327.403.505.212 1.09.036 1.627a8.686 8.686 0 0 0-.096.304c-1.046 3.63-2.213 7.123-4.193 9.902-1.068 1.495-1.777 3.44-2.254 5.527-.06.263-.037.567-.014.87.01.141.021.283.024.42a2.95 2.95 0 0 1 .276-.14c.21-.098.42-.196.568-.398.313-.428.567-.98.788-1.532.29-.723.572-1.454.854-2.184.514-1.333 1.027-2.664 1.594-3.945.279-.63.714-1.117 1.142-1.594.107-.12.213-.238.316-.358.233-.27.48-.043.37.38l-.082.323c-.297 1.174-.596 2.353-1.474 2.94-.367.246-.711.63-.998 1.055-.081.119-.08.364-.078.609.001.114.002.229-.005.331.053-.008.109-.01.164-.012.128-.006.255-.011.365-.08.15-.092.28-.263.408-.431l.066-.086c.707-.915 1.295-1.061 2.09-.303.676.645 1.311 1.396 1.921 2.184 1.065 1.374 2.187 2.297 3.636 1.439.5-.296 1.003-.588 1.506-.88.18 1.76.667 2.098 1.73 1.214.17-.142.334-.31.493-.484l.268-.295c.413-.453.826-.907 1.224-1.39.32-.388.586-.495.913-.007.396.591.887.834 1.454.72.925-.186 1.703-.841 2.427-1.67.22-.254.443-.504.665-.754l.243-.273c-.121.948.017 1.607.617 1.788.49.15 1.008.175 1.513.16.544-.014 1.09-.048 1.634-.083.908-.057 1.815-.114 2.72-.08l.498.02c1.663.068 3.312.135 4.956-.483.22-.083.44-.19.659-.298.632-.31 1.27-.622 1.976-.358.13.05.288-.05.444-.15.07-.044.14-.09.208-.12-.056-.071-.113-.16-.17-.25-.123-.193-.246-.388-.373-.395-.479-.029-.991-.004-1.442.217-2.16 1.05-4.352 1.404-6.618.998-.773-.14-1.566-.093-2.352-.046l-.28.017c-.416.025-.83.083-1.245.142-.425.06-.85.12-1.277.143-.202.01-.406-.091-.61-.192a3.362 3.362 0 0 0-.272-.125c.039-.128.072-.264.105-.4.072-.295.144-.59.274-.804a54.987 54.987 0 0 1 2.054-3.166c1.612-2.293 3.23-4.575 4.848-6.858l2.617-3.696.018-.026c.11-.153.23-.323.271-.519.035-.178.028-.374.02-.57a6.498 6.498 0 0 1-.005-.245c-.053.024-.11.04-.168.056-.12.035-.24.069-.316.175-.97 1.354-1.934 2.72-2.897 4.084-.552.783-1.104 1.565-1.658 2.345-.568.802-1.124 1.623-1.68 2.445-1.738 2.565-3.476 5.13-5.578 7.093-1.114 1.04-2.168 1.617-3.399.574-.445-.378-.846-.224-1.247.242-.565.659-1.143 1.304-1.758 1.849-.154.136-.364.13-.575.125-.097-.002-.194-.005-.286.006.012-.141.014-.293.016-.445.005-.326.009-.65.112-.869.406-.858.85-1.713 1.378-2.393.584-.75 1.212-1.42 1.84-2.092.235-.251.47-.502.703-.758.384-.42.396-.516.069-1.011-1.343 1-2.662 2.037-3.577 3.928a9.789 9.789 0 0 1-1.22 1.917c-1.392 1.699-3.095 2.126-4.551.185l-.195-.26c-.941-1.262-1.886-2.527-3.213-2.864.082-.234.165-.458.246-.678.177-.48.346-.936.484-1.413.491-1.68.235-2.197-.958-2.016-.01.003-.022-.008-.05-.034Zm-4.605 9.648a7.573 7.573 0 0 1-.1-.079c.584-2.219 1.49-4.135 2.512-5.94l.087.08.086.08-.672 1.605-1.814 4.332a7.562 7.562 0 0 0-.1-.078Z" fill="#000"/><path d="M33.73 35.608c-.243.047-.492.095-.41.815l.529-.067c.467-.06.933-.119 1.4-.158 1.081-.093 1.95-.862 2.711-1.916.456-.63.349-1.357-.251-1.606-1.376-.574-2.726-.446-3.983.658-.11.097-.188.277-.265.457-.037.086-.074.172-.114.249l.08.152c.013.022.026.045.038.069l.118-.044c.142-.053.284-.105.423-.167.19-.082.38-.173.57-.264.427-.205.854-.41 1.292-.516l.096-.024c.537-.136 1.124-.284 1.692.445-.093.09-.177.184-.255.27-.157.175-.292.324-.444.389-.833.357-1.672.68-2.51 1.004l-.545.21c-.054.021-.113.032-.172.044Z" fill="#000"/><g filter="url(#c)"><mask id="d" maskUnits="userSpaceOnUse" x="46.794" y="40.646" width="37.505" height="39.575" fill="#000"><path fill="#fff" d="M46.794 40.646h37.505v39.575H46.794z"/><path fill-rule="evenodd" clip-rule="evenodd" d="m62.102 64.641-2.213-1.217c-1.51-.831-3.534-.352-4.522 1.068l.23-.33a.892.892 0 0 0 .153 1.155l4.014 3.477c.637.55 1.843 1.168 2.672 1.359 0 0 4.897 1.008 5.457 2.063l.71 1.337 5.51-2.928-.085-3.487 2.841 2.023 1.378-.732-.71-1.336c-.561-1.056-.249-5.484-.249-5.484.04-.85-.246-2.158-.648-2.914l-2.953-5.558c-.679-1.218-2.255-1.66-3.546-.973-.645.343-.903 1.12-.576 1.735l.236.445c-.654-1.23-2.23-1.672-3.52-.986-.646.343-.904 1.12-.577 1.735l.236.445c-.653-1.23-2.23-1.672-3.52-.986-.646.343-.904 1.12-.577 1.735l.237.445a1.76 1.76 0 0 0-.317-.446l-3.407-5.551a1.672 1.672 0 0 0-2.196-.602 1.556 1.556 0 0 0-.645 2.11l2.927 5.51 3.66 6.888Zm8.937-6.514 1.377-.732 2.928 5.51-1.377.732-2.928-5.51Zm-2.756 1.464 1.378-.732 2.928 5.51-1.378.732-2.928-5.51Zm-2.755 1.464 1.378-.732 2.927 5.51-1.377.732-2.928-5.51Z"/></mask><path fill-rule="evenodd" clip-rule="evenodd" d="m62.102 64.641-2.213-1.217c-1.51-.831-3.534-.352-4.522 1.068l.23-.33a.892.892 0 0 0 .153 1.155l4.014 3.477c.637.55 1.843 1.168 2.672 1.359 0 0 4.897 1.008 5.457 2.063l.71 1.337 5.51-2.928-.085-3.487 2.841 2.023 1.378-.732-.71-1.336c-.561-1.056-.249-5.484-.249-5.484.04-.85-.246-2.158-.648-2.914l-2.953-5.558c-.679-1.218-2.255-1.66-3.546-.973-.645.343-.903 1.12-.576 1.735l.236.445c-.654-1.23-2.23-1.672-3.52-.986-.646.343-.904 1.12-.577 1.735l.236.445c-.653-1.23-2.23-1.672-3.52-.986-.646.343-.904 1.12-.577 1.735l.237.445a1.76 1.76 0 0 0-.317-.446l-3.407-5.551a1.672 1.672 0 0 0-2.196-.602 1.556 1.556 0 0 0-.645 2.11l2.927 5.51 3.66 6.888Zm8.937-6.514 1.377-.732 2.928 5.51-1.377.732-2.928-5.51Zm-2.756 1.464 1.378-.732 2.928 5.51-1.378.732-2.928-5.51Zm-2.755 1.464 1.378-.732 2.927 5.51-1.377.732-2.928-5.51Z" fill="#fff"/><path d="m62.102 64.641-.752 1.367 4.585 2.522-2.455-4.62-1.378.731Zm-2.213-1.217.752-1.367-.752 1.367Zm-4.14 1.893-1.02 1.18 1.02-1.18Zm4.015 3.477 1.022-1.18-1.022 1.18Zm2.672 1.359-.351 1.52.018.004.018.004.315-1.528Zm5.457 2.063 1.378-.731-1.378.731Zm.71 1.337-1.377.732.732 1.377 1.377-.732-.732-1.377Zm5.51-2.928.733 1.378.851-.453-.024-.964-1.56.039Zm-.085-3.487.904-1.271-2.541-1.81.077 3.12 1.56-.04Zm2.841 2.023-.905 1.27.786.56.851-.452-.732-1.378Zm1.378-.732.732 1.378 1.377-.732-.732-1.378-1.377.732Zm-.71-1.336-1.378.732 1.378-.732Zm-.249-5.484 1.556.11.002-.02v-.018l-1.558-.072Zm-.648-2.914 1.378-.732-1.378.732Zm-2.953-5.558 1.377-.732-.007-.014-.008-.014-1.362.76Zm-7.983 1.956 1.378-.732-1.378.732Zm-3.941 1.193-1.33.816.105.17.144.138 1.08-1.124Zm-3.407-5.551-1.33.816 1.33-.816Zm-2.842 1.507-1.377.732 1.377-.732Zm2.928 5.511-1.377.732 1.377-.732Zm13.974-.358 1.378-.732-.732-1.378-1.378.732.732 1.378Zm2.928 5.51.732 1.378 1.378-.732-.732-1.378-1.378.733Zm-1.377.732-1.378.732.732 1.378 1.377-.732-.731-1.378ZM69.66 58.86l1.377-.732-.731-1.378-1.378.732.732 1.378Zm2.928 5.51.731 1.378 1.378-.732-.732-1.377-1.377.732Zm-1.378.732-1.378.732.732 1.378 1.378-.732-.732-1.378Zm-4.305-4.778 1.377-.732-.732-1.378-1.377.732.732 1.378Zm2.927 5.51.732 1.378 1.378-.732-.732-1.377-1.377.731Zm-1.377.732-1.378.732.732 1.378 1.378-.732-.732-1.378Zm-5.602-3.29-2.213-1.218-1.504 2.734 2.213 1.217 1.504-2.734Zm-2.213-1.218c-2.215-1.218-5.114-.527-6.555 1.545l2.562 1.78c.535-.769 1.683-1.035 2.49-.591l1.503-2.734Zm-3.993 3.326.23-.331-2.562-1.781-.23.33 2.562 1.782Zm-2.332-2.112c-.71 1.021-.507 2.43.412 3.226l2.043-2.359c.149.13.216.288.233.423a.701.701 0 0 1-.126.49l-2.562-1.78Zm.412 3.226 4.015 3.476 2.043-2.359-4.015-3.476-2.043 2.359Zm4.015 3.476c.827.716 2.262 1.45 3.342 1.7l.701-3.04c-.578-.134-1.554-.633-2-1.019l-2.043 2.359Zm3.693.18-.315 1.528h.001l.008.002.037.007a28.036 28.036 0 0 1 .682.155c.45.107 1.05.258 1.661.44.62.183 1.208.385 1.652.586.223.1.37.183.454.24.112.078.005.036-.1-.163l2.755-1.463c-.246-.463-.629-.767-.891-.947a6.127 6.127 0 0 0-.934-.511c-.632-.285-1.374-.534-2.048-.734a34.85 34.85 0 0 0-2.583-.655l-.046-.01a.498.498 0 0 0-.013-.002h-.005v-.001l-.315 1.528Zm4.08 2.795.71 1.337 2.755-1.464-.71-1.336-2.755 1.463Zm2.82 1.982 5.51-2.927-1.464-2.756-5.51 2.928 1.463 2.755Zm6.337-4.344-.086-3.487-3.119.077.086 3.488 3.12-.078Zm-2.55-2.177 2.841 2.023 1.81-2.542-2.841-2.023-1.81 2.542Zm4.478 2.13 1.378-.732-1.464-2.755-1.378.731 1.464 2.756Zm2.023-2.842-.71-1.336-2.755 1.464.71 1.336 2.755-1.464Zm-.71-1.336c.027.05-.048-.127-.099-.707a18.809 18.809 0 0 1-.053-1.689 39.305 39.305 0 0 1 .08-2.204l.002-.034V61.718l-1.556-.11-1.556-.109v.016c-.002.01-.002.023-.004.041a30.767 30.767 0 0 0-.038.687 42.301 42.301 0 0 0-.048 1.702c-.004.642.01 1.35.065 1.982.049.547.146 1.32.452 1.898l2.755-1.464Zm-.067-4.68c.028-.605-.059-1.289-.194-1.901-.136-.612-.347-1.273-.635-1.817l-2.755 1.464c.112.213.245.583.343 1.027.098.443.135.838.124 1.082l3.117.145Zm-.83-3.718-2.953-5.558-2.755 1.464 2.954 5.558 2.755-1.464Zm-2.968-5.586c-1.116-2.003-3.644-2.651-5.64-1.59l1.464 2.754c.586-.31 1.21-.076 1.451.356l2.725-1.52Zm-5.64-1.59c-1.344.713-1.986 2.406-1.222 3.844l2.755-1.464c.05.094.048.191.027.254a.21.21 0 0 1-.096.12l-1.464-2.755Zm-1.222 3.844.237.445 2.755-1.464-.237-.445-2.755 1.464Zm2.992-1.019c-1.09-2.052-3.641-2.689-5.63-1.632l1.463 2.756c.593-.315 1.195-.068 1.412.34l2.755-1.464Zm-5.63-1.632c-1.344.714-1.987 2.407-1.223 3.845l2.756-1.464c.05.094.047.191.026.254a.21.21 0 0 1-.096.12L65.55 51.98Zm-1.223 3.845.237.445 2.755-1.464-.236-.445-2.756 1.464Zm2.992-1.019c-1.09-2.052-3.641-2.688-5.63-1.632l1.464 2.755c.592-.314 1.194-.067 1.41.341l2.756-1.464Zm-5.63-1.632c-1.344.714-1.986 2.407-1.223 3.845l2.756-1.464c.05.094.047.191.026.254a.209.209 0 0 1-.095.12l-1.464-2.755Zm-1.223 3.845.237.445 2.755-1.463-.236-.446-2.756 1.464Zm2.992-1.018a3.297 3.297 0 0 0-.613-.84l-2.162 2.25c-.029-.028-.038-.043-.031-.033.006.009.024.035.051.086l2.755-1.463Zm-.365-.531-3.406-5.551-2.66 1.632 3.407 5.55 2.66-1.631Zm-3.406-5.551a3.232 3.232 0 0 0-4.258-1.164l1.464 2.756a.098.098 0 0 1 .072-.004.1.1 0 0 1 .063.044l2.66-1.632Zm-4.258-1.164a3.116 3.116 0 0 0-1.291 4.22l2.755-1.465-1.464-2.755Zm-1.291 4.22 2.928 5.51 2.755-1.464-2.928-5.51-2.755 1.463Zm2.928 5.51 3.66 6.888 2.755-1.464-3.66-6.888-2.755 1.464Zm14.706 1.02 1.377-.732-1.464-2.756-1.377.732 1.464 2.755Zm-.732-1.378 2.927 5.51 2.756-1.464-2.928-5.51-2.755 1.464Zm3.573 3.4-1.377.733 1.463 2.755 1.378-.732-1.464-2.755Zm.732 1.379-2.928-5.511-2.755 1.464 2.928 5.51 2.755-1.463Zm-6.329-1.938 1.378-.731-1.464-2.756-1.378.732 1.464 2.755Zm-.732-1.377 2.928 5.51 2.755-1.463-2.927-5.511-2.756 1.464Zm3.574 3.4-1.378.733 1.464 2.755 1.377-.732-1.463-2.755Zm.732 1.379-2.928-5.511-2.755 1.464 2.927 5.51 2.756-1.463Zm-6.329-1.937 1.378-.732-1.464-2.756-1.378.732 1.464 2.756Zm-.732-1.378 2.928 5.51 2.755-1.463-2.928-5.511-2.755 1.464Zm3.573 3.4-1.377.733 1.464 2.755 1.377-.732-1.463-2.755Zm.733 1.379-2.928-5.511-2.756 1.464 2.928 5.51 2.755-1.463Z" fill="#000" fill-opacity=".8" mask="url(#d)"/></g></g><defs><filter id="b" x="14.079" y="23.596" width="55.5" height="30" filterUnits="userSpaceOnUse" color-interpolation-filters="sRGB"><feFlood flood-opacity="0" result="BackgroundImageFix"/><feColorMatrix in="SourceAlpha" values="0 0 0 0 0 0 0 0 0 0 0 0 0 0 0 0 0 0 127 0" result="hardAlpha"/><feOffset dy="1.5"/><feGaussianBlur stdDeviation="1.5"/><feColorMatrix values="0 0 0 0 0 0 0 0 0 0 0 0 0 0 0 0 0 0 0.05 0"/><feBlend in2="BackgroundImageFix" result="effect1_dropShadow_1665_23812"/><feBlend in="SourceGraphic" in2="effect1_dropShadow_1665_23812" result="shape"/></filter><filter id="c" x="36.911" y="31.888" width="59.99" height="59.989" filterUnits="userSpaceOnUse" color-interpolation-filters="sRGB"><feFlood flood-opacity="0" result="BackgroundImageFix"/><feColorMatrix in="SourceAlpha" values="0 0 0 0 0 0 0 0 0 0 0 0 0 0 0 0 0 0 127 0" result="hardAlpha"/><feOffset dy="1.56"/><feGaussianBlur stdDeviation="1.56"/><feColorMatrix values="0 0 0 0 0 0 0 0 0 0 0 0 0 0 0 0 0 0 0.06 0"/><feBlend in2="BackgroundImageFix" result="effect1_dropShadow_1665_23812"/><feColorMatrix in="SourceAlpha" values="0 0 0 0 0 0 0 0 0 0 0 0 0 0 0 0 0 0 127 0" result="hardAlpha"/><feOffset dy="1.56"/><feGaussianBlur stdDeviation="2.34"/><feColorMatrix values="0 0 0 0 0 0 0 0 0 0 0 0 0 0 0 0 0 0 0.1 0"/><feBlend in2="effect1_dropShadow_1665_23812" result="effect2_dropShadow_1665_23812"/><feBlend in="SourceGraphic" in2="effect2_dropShadow_1665_23812" result="shape"/></filter><clipPath id="a"><path fill="#fff" transform="translate(.678 .096)" d="M0 0h80v80H0z"/></clipPath></defs></svg>