<svg fill="none" xmlns="http://www.w3.org/2000/svg" viewBox="0 0 81 81"><g clip-path="url(#a)"><rect x="24.178" y="9.547" width="52" height="28" rx="3.5" fill="#FFFCDB" stroke="#ECC94B" stroke-dasharray="1 1"/><path d="M50.178 27.047a.53.53 0 0 1-.53-.53v-2.49h-2.49a.48.48 0 0 1 0-.96h2.49v-2.49a.53.53 0 1 1 1.06 0v2.49h2.49a.48.48 0 0 1 0 .96h-2.49v2.49a.53.53 0 0 1-.53.53Z" fill="#ECC94B"/><g filter="url(#b)"><rect x="4.678" y="30.047" width="53" height="29" rx="4" fill="#FFFFFD"/><rect x="5.178" y="30.547" width="52" height="28" rx="3.5" stroke="#DAE3ED"/></g><path d="M15.678 45.924c1.95-.049 3.091.41 6.61-2.193 1.04-.896 2.34-2.016.52-2.911-1.82-.896-4.242 1.151-4.678 3.358-.404 2.041.452 4.357 2.502 4.703 1.884.317 3.012-1.568 3.899-2.957.886-1.39 1.656-4.209 1.916-5.104 1.04 1.343 2.079 3.582 3.119 6.045 1.066 2.525-1.82 2.24-2.6 1.568-.78-.672-1.143-1.523 2.6-4.926 1.455-1.433 1.82-2.015 2.339-2.687.52 1.791.678 3.9 3.173 4.08m2.82-2.44c1.3 2.24.105 13.17-4.947 10.022-5.475-3.412 9.617-13.435 9.617-13.435l-1.046 8.266c.78-2.463 2.807-7.21 4.678-6.493 2.34.895.49 4.604 1.376 6.493.887 1.89 2.216 1.89 3.102 1.89" stroke="#1A365D" stroke-width="1.3" stroke-linecap="round" stroke-linejoin="round"/><g filter="url(#c)"><path fill-rule="evenodd" clip-rule="evenodd" d="m58.94 65.321 6.968-2.477-18.73-10.297 5.46 20.665 4.09-6.163 4.895 6.266 2.212-1.728-4.895-6.266Z" fill="#363B3E"/><path d="m66.16 63.551 1.573-.56-1.463-.804L47.54 51.89l-1.534-.843.447 1.692 5.46 20.664.427 1.615.924-1.392 3.514-5.295 4.255 5.446.461.59.591-.461 2.212-1.728.59-.462-.46-.59-4.256-5.447 5.988-2.128Z" stroke="#fff" stroke-opacity=".8" stroke-width="1.5"/></g><path fill-rule="evenodd" clip-rule="evenodd" d="M8.428 41.797a.75.75 0 1 0 0 1.5.75.75 0 0 0 0-1.5Zm2.5 0a.75.75 0 1 0 0 1.5.75.75 0 0 0 0-1.5Zm0 2.5a.75.75 0 1 0 0 1.5.75.75 0 0 0 0-1.5Zm-.75 3.25a.75.75 0 1 1 1.5 0 .75.75 0 0 1-1.5 0Zm-2.5-2.5a.75.75 0 1 1 1.5 0 .75.75 0 0 1-1.5 0Zm.75 1.75a.75.75 0 1 0 0 1.5.75.75 0 0 0 0-1.5Z" fill="#ABB8CC"/></g><defs><filter id="b" x="2.678" y="29.047" width="57" height="33" filterUnits="userSpaceOnUse" color-interpolation-filters="sRGB"><feFlood flood-opacity="0" result="BackgroundImageFix"/><feColorMatrix in="SourceAlpha" values="0 0 0 0 0 0 0 0 0 0 0 0 0 0 0 0 0 0 127 0" result="hardAlpha"/><feOffset dy="1"/><feGaussianBlur stdDeviation="1"/><feColorMatrix values="0 0 0 0 0 0 0 0 0 0 0 0 0 0 0 0 0 0 0.05 0"/><feBlend in2="BackgroundImageFix" result="effect1_dropShadow_1665_20396"/><feBlend in="SourceGraphic" in2="effect1_dropShadow_1665_20396" result="shape"/></filter><filter id="c" x="41.834" y="47.546" width="30.724" height="33.278" filterUnits="userSpaceOnUse" color-interpolation-filters="sRGB"><feFlood flood-opacity="0" result="BackgroundImageFix"/><feColorMatrix in="SourceAlpha" values="0 0 0 0 0 0 0 0 0 0 0 0 0 0 0 0 0 0 127 0" result="hardAlpha"/><feOffset dy="1"/><feGaussianBlur stdDeviation="1"/><feColorMatrix values="0 0 0 0 0 0 0 0 0 0 0 0 0 0 0 0 0 0 0.06 0"/><feBlend in2="BackgroundImageFix" result="effect1_dropShadow_1665_20396"/><feColorMatrix in="SourceAlpha" values="0 0 0 0 0 0 0 0 0 0 0 0 0 0 0 0 0 0 127 0" result="hardAlpha"/><feOffset dy="1"/><feGaussianBlur stdDeviation="1.5"/><feColorMatrix values="0 0 0 0 0 0 0 0 0 0 0 0 0 0 0 0 0 0 0.1 0"/><feBlend in2="effect1_dropShadow_1665_20396" result="effect2_dropShadow_1665_20396"/><feBlend in="SourceGraphic" in2="effect2_dropShadow_1665_20396" result="shape"/></filter><clipPath id="a"><path fill="#fff" transform="translate(.678 .047)" d="M0 0h80v80H0z"/></clipPath></defs></svg>