<?xml version="1.0" encoding="UTF-8" standalone="no"?>
<!DOCTYPE svg PUBLIC "-//W3C//DTD SVG 1.1//EN" "http://www.w3.org/Graphics/SVG/1.1/DTD/svg11.dtd">
<svg width="100%" height="100%" viewBox="0 0 801 108" version="1.1" xmlns="http://www.w3.org/2000/svg" xmlns:xlink="http://www.w3.org/1999/xlink" xml:space="preserve" xmlns:serif="http://www.serif.com/" style="fill-rule:evenodd;clip-rule:evenodd;stroke-linejoin:round;stroke-miterlimit:2;">
    <g transform="matrix(1,0,0,1,-1988.195765,-1902.365763)">
        <g>
            <g transform="matrix(-0.195024,-0.378544,-0.378544,0.195024,2744.572343,2350.110613)">
                <path d="M1527.531,1205.49C1525.636,1208.311 1522.794,1213.585 1522.794,1213.585C1538.769,1204.643 1671.181,1124.666 1664,934L1616,971C1616,971 1626.117,994.032 1619,1020C1619,1020 1612.022,973.026 1607,982C1607,982 1580.661,1014.807 1570,1077C1570,1077 1582.109,1086.941 1574,1117C1574,1117 1578.822,1086.314 1564,1084C1564,1084 1570.982,1140.813 1527.531,1205.49Z" style="fill:rgb(49,110,162);"/>
            </g>
            <g transform="matrix(3.5,0,0,0.518519,895.5,1390.047835)">
                <path d="M351.857,1153.857L345.029,1099.086L351.457,1052.414L354.4,1052.414L347.057,1104.871L347.086,1093.3L354.914,1153.857L351.857,1153.857ZM343.029,1153.857L343.029,1015L345.429,1015L345.429,1153.857L343.029,1153.857Z" style="fill:rgb(34,41,57);fill-rule:nonzero;"/>
                <path d="M362.657,1156.171C361.324,1156.171 360.143,1153.986 359.114,1149.614C358.086,1145.243 357.281,1139.071 356.7,1131.1C356.119,1123.129 355.829,1113.807 355.829,1103.136C355.829,1092.464 356.119,1083.143 356.7,1075.171C357.281,1067.2 358.09,1061.029 359.129,1056.657C360.167,1052.286 361.362,1050.1 362.714,1050.1C364.162,1050.1 365.371,1052.286 366.343,1056.657C367.314,1061.029 368.048,1066.879 368.543,1074.207C369.038,1081.536 369.286,1089.571 369.286,1098.314L369.286,1102.171C369.286,1103.457 369.276,1105 369.257,1106.8L357.629,1106.8L357.629,1094.264L366.943,1094.264C366.905,1084.364 366.481,1076.811 365.671,1071.604C364.862,1066.396 363.857,1063.793 362.657,1063.793C361.857,1063.793 361.119,1065.111 360.443,1067.746C359.767,1070.382 359.219,1074.271 358.8,1079.414C358.381,1084.557 358.171,1090.986 358.171,1098.7L358.171,1104.1C358.171,1112.586 358.381,1119.689 358.8,1125.411C359.219,1131.132 359.767,1135.407 360.443,1138.236C361.119,1141.064 361.857,1142.479 362.657,1142.479C363.724,1142.479 364.562,1141.096 365.171,1138.332C365.781,1135.568 366.229,1131.614 366.514,1126.471L368.886,1126.471C368.657,1132.129 368.262,1137.207 367.7,1141.707C367.138,1146.207 366.433,1149.743 365.586,1152.314C364.738,1154.886 363.762,1156.171 362.657,1156.171Z" style="fill:rgb(34,41,57);fill-rule:nonzero;"/>
                <path d="M378.829,1156.171C377.495,1156.171 376.314,1153.986 375.286,1149.614C374.257,1145.243 373.452,1139.071 372.871,1131.1C372.29,1123.129 372,1113.807 372,1103.136C372,1092.464 372.29,1083.143 372.871,1075.171C373.452,1067.2 374.262,1061.029 375.3,1056.657C376.338,1052.286 377.533,1050.1 378.886,1050.1C380.333,1050.1 381.543,1052.286 382.514,1056.657C383.486,1061.029 384.219,1066.879 384.714,1074.207C385.21,1081.536 385.457,1089.571 385.457,1098.314L385.457,1102.171C385.457,1103.457 385.448,1105 385.429,1106.8L373.8,1106.8L373.8,1094.264L383.114,1094.264C383.076,1084.364 382.652,1076.811 381.843,1071.604C381.033,1066.396 380.029,1063.793 378.829,1063.793C378.029,1063.793 377.29,1065.111 376.614,1067.746C375.938,1070.382 375.39,1074.271 374.971,1079.414C374.552,1084.557 374.343,1090.986 374.343,1098.7L374.343,1104.1C374.343,1112.586 374.552,1119.689 374.971,1125.411C375.39,1131.132 375.938,1135.407 376.614,1138.236C377.29,1141.064 378.029,1142.479 378.829,1142.479C379.895,1142.479 380.733,1141.096 381.343,1138.332C381.952,1135.568 382.4,1131.614 382.686,1126.471L385.057,1126.471C384.829,1132.129 384.433,1137.207 383.871,1141.707C383.31,1146.207 382.605,1149.743 381.757,1152.314C380.91,1154.886 379.933,1156.171 378.829,1156.171Z" style="fill:rgb(34,41,57);fill-rule:nonzero;"/>
                <path d="M388.771,1196.286L388.771,1052.414L390.943,1052.414L391.143,1068.229C391.448,1064.886 391.833,1061.864 392.3,1059.164C392.767,1056.464 393.329,1054.279 393.986,1052.607C394.643,1050.936 395.4,1050.1 396.257,1050.1C397.61,1050.1 398.795,1052.414 399.814,1057.043C400.833,1061.671 401.629,1067.971 402.2,1075.943C402.771,1083.914 403.057,1093.043 403.057,1103.329C403.057,1113.486 402.771,1122.55 402.2,1130.521C401.629,1138.493 400.829,1144.761 399.8,1149.325C398.771,1153.889 397.581,1156.171 396.229,1156.171C395.067,1156.171 394.048,1154.564 393.171,1151.35C392.295,1148.136 391.629,1143.636 391.171,1137.85L391.171,1196.286L388.771,1196.286ZM395.943,1142.093C396.838,1142.093 397.633,1140.518 398.329,1137.368C399.024,1134.218 399.576,1129.718 399.986,1123.868C400.395,1118.018 400.6,1111.107 400.6,1103.136C400.6,1095.164 400.395,1088.254 399.986,1082.404C399.576,1076.554 399.024,1072.054 398.329,1068.904C397.633,1065.754 396.838,1064.179 395.943,1064.179C394.99,1064.179 394.162,1065.754 393.457,1068.904C392.752,1072.054 392.21,1076.554 391.829,1082.404C391.448,1088.254 391.257,1095.164 391.257,1103.136C391.257,1111.107 391.448,1118.018 391.829,1123.868C392.21,1129.718 392.752,1134.218 393.457,1137.368C394.162,1140.518 394.99,1142.093 395.943,1142.093Z" style="fill:rgb(34,41,57);fill-rule:nonzero;"/>
                <path d="M413.375,1156.171C411.923,1156.171 410.637,1153.999 409.517,1149.655C408.396,1145.311 407.52,1139.334 406.889,1131.725C406.258,1124.116 405.942,1115.421 405.942,1105.64C405.942,1095.567 406.258,1086.703 406.889,1079.048C407.52,1071.393 408.396,1065.378 409.517,1061.002C410.637,1056.627 411.925,1054.439 413.381,1054.439C415.221,1054.439 416.768,1057.692 418.021,1064.198C419.275,1070.704 420.073,1079.688 420.416,1091.148L416.334,1091.148C416.164,1086.632 415.81,1083.094 415.273,1080.532C414.736,1077.971 414.094,1076.69 413.347,1076.69C412.676,1076.69 412.078,1077.827 411.555,1080.101C411.031,1082.375 410.62,1085.651 410.321,1089.927C410.022,1094.203 409.873,1099.329 409.873,1105.305C409.873,1109.753 409.959,1113.745 410.131,1117.282C410.302,1120.819 410.544,1123.834 410.854,1126.327C411.165,1128.82 411.532,1130.722 411.956,1132.033C412.38,1133.343 412.844,1133.999 413.347,1133.999C413.848,1133.999 414.3,1133.433 414.702,1132.302C415.104,1131.171 415.448,1129.516 415.736,1127.336C416.024,1125.157 416.223,1122.532 416.334,1119.462L420.416,1119.462C420.075,1130.632 419.275,1139.543 418.016,1146.194C416.757,1152.846 415.21,1156.171 413.375,1156.171Z" style="fill:rgb(49,110,162);fill-rule:nonzero;"/>
                <path d="M430.54,1156.171C429.165,1156.171 427.927,1154.011 426.827,1149.691C425.727,1145.371 424.86,1139.379 424.226,1131.716C423.591,1124.053 423.274,1115.267 423.274,1105.357C423.274,1095.306 423.593,1086.453 424.231,1078.797C424.869,1071.141 425.74,1065.167 426.843,1060.876C427.946,1056.585 429.185,1054.439 430.56,1054.439C431.954,1054.439 433.2,1056.585 434.298,1060.876C435.396,1065.167 436.262,1071.132 436.896,1078.771C437.53,1086.41 437.847,1095.268 437.847,1105.345C437.847,1115.303 437.528,1124.103 436.89,1131.746C436.252,1139.389 435.383,1145.371 434.282,1149.691C433.182,1154.011 431.935,1156.171 430.54,1156.171ZM430.545,1133.695C431.18,1133.695 431.749,1132.636 432.253,1130.518C432.757,1128.401 433.16,1125.227 433.463,1120.996C433.765,1116.765 433.917,1111.534 433.917,1105.302C433.917,1099.002 433.768,1093.75 433.471,1089.545C433.174,1085.341 432.773,1082.185 432.27,1080.077C431.767,1077.97 431.201,1076.916 430.572,1076.916C429.956,1076.916 429.393,1077.97 428.882,1080.077C428.371,1082.185 427.964,1085.346 427.66,1089.56C427.357,1093.775 427.205,1099.031 427.205,1105.329C427.205,1111.533 427.356,1116.753 427.659,1120.989C427.961,1125.224 428.365,1128.401 428.869,1130.518C429.373,1132.636 429.931,1133.695 430.545,1133.695Z" style="fill:rgb(49,110,162);fill-rule:nonzero;"/>
                <path d="M441.163,1153.857L441.163,1056.754L444.558,1056.754L444.844,1072.526C445.282,1067.055 445.907,1062.673 446.72,1059.38C447.532,1056.086 448.504,1054.439 449.634,1054.439C450.817,1054.439 451.818,1056.105 452.637,1059.435C453.456,1062.766 454.083,1067.644 454.518,1074.069C454.953,1080.493 455.17,1088.382 455.17,1097.736L455.17,1153.857L451.33,1153.857L451.33,1100.149C451.33,1092.548 451.087,1086.681 450.6,1082.548C450.114,1078.416 449.365,1076.35 448.354,1076.35C447.719,1076.35 447.148,1077.368 446.642,1079.404C446.136,1081.44 445.74,1084.357 445.452,1088.155C445.164,1091.953 445.02,1096.579 445.02,1102.033L445.02,1153.857L441.163,1153.857Z" style="fill:rgb(49,110,162);fill-rule:nonzero;"/>
                <path d="M465.266,1153.857C464.264,1153.857 463.384,1152.787 462.627,1150.648C461.87,1148.508 461.283,1144.965 460.866,1140.018C460.449,1135.071 460.241,1128.33 460.241,1119.794L460.241,1078.471L457.774,1078.471L457.774,1056.754L460.241,1056.754L460.672,1030.172L464.093,1030.172L464.093,1056.754L467.893,1056.754L467.893,1078.471L464.098,1078.471L464.098,1120.02C464.098,1124.405 464.24,1127.451 464.523,1129.158C464.807,1130.864 465.294,1131.718 465.985,1131.718L467.854,1131.718L467.854,1153.857L465.266,1153.857Z" style="fill:rgb(49,110,162);fill-rule:nonzero;"/>
                <path d="M471.141,1153.857L471.141,1056.754L474.569,1056.754L474.929,1074.617C475.288,1070.408 475.726,1066.808 476.242,1063.815C476.759,1060.823 477.358,1058.512 478.039,1056.883C478.72,1055.254 479.47,1054.439 480.288,1054.439L480.288,1081.924L478.972,1081.924C478.399,1081.924 477.869,1082.364 477.381,1083.243C476.894,1084.122 476.471,1085.573 476.114,1087.597C475.756,1089.621 475.481,1092.378 475.288,1095.869C475.095,1099.359 474.998,1103.714 474.998,1108.933L474.998,1153.857L471.141,1153.857Z" style="fill:rgb(49,110,162);fill-rule:nonzero;"/>
                <path d="M487.682,1156.171C486.49,1156.171 485.504,1154.854 484.722,1152.219C483.94,1149.585 483.36,1146.033 482.98,1141.566C482.601,1137.098 482.411,1132.196 482.411,1126.86C482.411,1120.93 482.636,1115.719 483.085,1111.228C483.535,1106.737 484.215,1103.214 485.127,1100.659C486.038,1098.103 487.18,1096.826 488.552,1096.826L492.096,1096.826C492.096,1092.012 492.004,1088.05 491.822,1084.939C491.639,1081.829 491.346,1079.493 490.944,1077.933C490.542,1076.373 490.01,1075.593 489.347,1075.593C488.625,1075.593 488.011,1076.66 487.505,1078.794C486.999,1080.927 486.686,1084.147 486.568,1088.454L482.821,1088.454C482.926,1081.506 483.267,1075.501 483.844,1070.442C484.421,1065.382 485.189,1061.45 486.146,1058.646C487.104,1055.842 488.176,1054.439 489.364,1054.439C490.724,1054.439 491.897,1055.966 492.882,1059.018C493.868,1062.071 494.626,1066.503 495.157,1072.315C495.688,1078.127 495.953,1085.224 495.953,1093.607L495.953,1153.857L492.705,1153.857L492.277,1139.019C492.078,1141.526 491.832,1143.82 491.54,1145.899C491.248,1147.978 490.912,1149.79 490.533,1151.335C490.154,1152.88 489.728,1154.072 489.255,1154.912C488.782,1155.752 488.257,1156.171 487.682,1156.171ZM488.599,1136.036C489.094,1136.036 489.537,1135.435 489.926,1134.232C490.316,1133.03 490.652,1131.366 490.935,1129.239C491.218,1127.113 491.443,1124.66 491.61,1121.881C491.778,1119.101 491.889,1116.146 491.945,1113.014L491.945,1112.754L488.991,1112.754C488.411,1112.754 487.934,1113.257 487.562,1114.261C487.19,1115.266 486.917,1116.658 486.743,1118.439C486.57,1120.22 486.483,1122.28 486.483,1124.618C486.483,1127.079 486.57,1129.162 486.745,1130.866C486.92,1132.571 487.167,1133.859 487.485,1134.73C487.803,1135.601 488.175,1136.036 488.599,1136.036Z" style="fill:rgb(49,110,162);fill-rule:nonzero;"/>
                <path d="M506.539,1156.171C505.086,1156.171 503.8,1153.999 502.68,1149.655C501.559,1145.311 500.684,1139.334 500.052,1131.725C499.421,1124.116 499.105,1115.421 499.105,1105.64C499.105,1095.567 499.421,1086.703 500.052,1079.048C500.684,1071.393 501.559,1065.378 502.68,1061.002C503.8,1056.627 505.088,1054.439 506.544,1054.439C508.384,1054.439 509.931,1057.692 511.184,1064.198C512.438,1070.704 513.236,1079.688 513.579,1091.148L509.498,1091.148C509.327,1086.632 508.974,1083.094 508.436,1080.532C507.899,1077.971 507.257,1076.69 506.51,1076.69C505.839,1076.69 505.241,1077.827 504.718,1080.101C504.194,1082.375 503.783,1085.651 503.484,1089.927C503.185,1094.203 503.036,1099.329 503.036,1105.305C503.036,1109.753 503.122,1113.745 503.294,1117.282C503.466,1120.819 503.707,1123.834 504.018,1126.327C504.328,1128.82 504.696,1130.722 505.119,1132.033C505.543,1133.343 506.007,1133.999 506.51,1133.999C507.011,1133.999 507.463,1133.433 507.865,1132.302C508.267,1131.171 508.611,1129.516 508.899,1127.336C509.187,1125.157 509.386,1122.532 509.498,1119.462L513.579,1119.462C513.238,1130.632 512.438,1139.543 511.179,1146.194C509.92,1152.846 508.373,1156.171 506.539,1156.171Z" style="fill:rgb(49,110,162);fill-rule:nonzero;"/>
                <path d="M523.21,1153.857C522.207,1153.857 521.328,1152.787 520.571,1150.648C519.814,1148.508 519.227,1144.965 518.81,1140.018C518.393,1135.071 518.184,1128.33 518.184,1119.794L518.184,1078.471L515.718,1078.471L515.718,1056.754L518.184,1056.754L518.615,1030.172L522.036,1030.172L522.036,1056.754L525.836,1056.754L525.836,1078.471L522.041,1078.471L522.041,1120.02C522.041,1124.405 522.183,1127.451 522.467,1129.158C522.75,1130.864 523.238,1131.718 523.929,1131.718L525.797,1131.718L525.797,1153.857L523.21,1153.857Z" style="fill:rgb(49,110,162);fill-rule:nonzero;"/>
                <path d="M534.961,1156.171C533.646,1156.171 532.506,1154.748 531.54,1151.901C530.575,1149.055 529.817,1145.148 529.266,1140.181C528.716,1135.214 528.395,1129.555 528.305,1123.205L532.152,1123.205C532.234,1125.602 532.391,1127.793 532.622,1129.78C532.853,1131.767 533.161,1133.344 533.546,1134.511C533.931,1135.678 534.385,1136.262 534.906,1136.262C535.42,1136.262 535.843,1135.775 536.174,1134.802C536.505,1133.829 536.751,1132.532 536.912,1130.912C537.073,1129.291 537.153,1127.567 537.153,1125.739C537.153,1122.991 537.037,1120.893 536.806,1119.444C536.574,1117.996 536.237,1116.812 535.794,1115.893C535.351,1114.974 534.819,1114.095 534.198,1113.258C533.515,1112.279 532.846,1111.127 532.191,1109.8C531.536,1108.473 530.949,1106.773 530.429,1104.7C529.91,1102.626 529.498,1099.976 529.192,1096.747C528.887,1093.519 528.735,1089.529 528.735,1084.778C528.735,1079.061 528.966,1073.901 529.429,1069.3C529.892,1064.698 530.561,1061.071 531.435,1058.418C532.309,1055.766 533.36,1054.439 534.587,1054.439C536.324,1054.439 537.7,1057.073 538.714,1062.342C539.728,1067.61 540.325,1074.856 540.505,1084.079L536.877,1084.079C536.774,1081.035 536.524,1078.672 536.127,1076.989C535.73,1075.305 535.21,1074.463 534.567,1074.463C533.887,1074.463 533.368,1075.298 533.009,1076.969C532.65,1078.639 532.47,1080.779 532.47,1083.389C532.47,1085.207 532.585,1086.82 532.814,1088.228C533.044,1089.637 533.379,1090.845 533.82,1091.854C534.26,1092.862 534.797,1093.82 535.429,1094.728C536.54,1096.257 537.513,1097.993 538.345,1099.937C539.178,1101.881 539.832,1104.698 540.309,1108.39C540.786,1112.081 541.022,1117.377 541.017,1124.278C541.031,1130.513 540.79,1136.034 540.293,1140.839C539.796,1145.645 539.095,1149.401 538.19,1152.109C537.285,1154.817 536.209,1156.171 534.961,1156.171Z" style="fill:rgb(49,110,162);fill-rule:nonzero;"/>
            </g>
        </g>
    </g>
</svg>
